# xmcd CD database file
#
# Track frame offsets:
#	150
#	15392
#	37550
#	54965
#	76382
#	97102
#	118745
#	140310
#	156335
#	172885
#	189050
#	208285
#	228035
#	246747
#	267887
#
# Disc length: 4091 seconds
#
# Revision: 20
# Processed by: cddbd v1.5.2PL0 Copyright (c) Steve Scherf et al.
# Submitted via: CDex 1.51
#
DISCID=ba0ff90f
DTITLE=Various Artist - Climax Dramatic Songs [CD1)
DYEAR=0
DGENRE=JPop
TTITLE0=Various Artist - Love Love Love
TTITLE1=Various Artist - Love Story wa Totsuzen ni
TTITLE2=Various Artist - True Love
TTITLE3=Various Artist - Say Yes
TTITLE4=Various Artist - Shiawase na Ketsumatsu
TTITLE5=Various Artist - La La La Love Song
TTITLE6=Various Artist - Tomorrow
TTITLE7=Various Artist - Ningyo
TTITLE8=Various Artist - Den'en
TTITLE9=Various Artist - Ima Sugu Kiss Me
TTITLE10=Various Artist - Yakusoku no Hashi
TTITLE11=Various Artist - Taisetsu na Anata
TTITLE12=Various Artist - Make-up Shadow
TTITLE13=Various Artist - Hungry Spider
TTITLE14=Various Artist - Say Anything
EXTD=YEAR: 0
EXTT0=
EXTT1=
EXTT2=
EXTT3=
EXTT4=
EXTT5=
EXTT6=
EXTT7=
EXTT8=
EXTT9=
EXTT10=
EXTT11=
EXTT12=
EXTT13=
EXTT14=
PLAYORDER=
